<svg width="155" height="38" viewBox="0 0 155 38" fill="none" xmlns="http://www.w3.org/2000/svg">
<path d="M54.276 30.24C52.776 30.24 51.456 29.92 50.316 29.28C49.196 28.62 48.326 27.7 47.706 26.52C47.086 25.32 46.776 23.94 46.776 22.38V16.62C46.776 15.06 47.086 13.69 47.706 12.51C48.346 11.31 49.236 10.39 50.376 9.75C51.536 9.09 52.866 8.76 54.366 8.76H57.666C59.106 8.76 60.376 9.06 61.476 9.66C62.576 10.24 63.426 11.07 64.026 12.15C64.626 13.21 64.926 14.44 64.926 15.84H61.476C61.476 14.64 61.126 13.68 60.426 12.96C59.726 12.22 58.806 11.85 57.666 11.85H54.366C53.146 11.85 52.156 12.3 51.396 13.2C50.656 14.08 50.286 15.26 50.286 16.74V22.26C50.286 23.74 50.646 24.93 51.366 25.83C52.106 26.71 53.076 27.15 54.276 27.15H57.696C58.856 27.15 59.806 26.74 60.546 25.92C61.286 25.1 61.656 24.05 61.656 22.77V21.75H55.836V18.69H65.106V22.77C65.106 24.23 64.796 25.53 64.176 26.67C63.556 27.79 62.686 28.67 61.566 29.31C60.446 29.93 59.156 30.24 57.696 30.24H54.276ZM75.3697 30.24C73.8697 30.24 72.5497 29.92 71.4097 29.28C70.2897 28.62 69.4197 27.7 68.7997 26.52C68.1797 25.32 67.8697 23.94 67.8697 22.38V16.62C67.8697 15.06 68.1797 13.69 68.7997 12.51C69.4397 11.31 70.3297 10.39 71.4697 9.75C72.6297 9.09 73.9597 8.76 75.4597 8.76H78.7597C80.1997 8.76 81.4697 9.06 82.5697 9.66C83.6697 10.24 84.5197 11.07 85.1197 12.15C85.7197 13.21 86.0197 14.44 86.0197 15.84H82.5697C82.5697 14.64 82.2197 13.68 81.5197 12.96C80.8197 12.22 79.8997 11.85 78.7597 11.85H75.4597C74.2397 11.85 73.2497 12.3 72.4897 13.2C71.7497 14.08 71.3797 15.26 71.3797 16.74V22.26C71.3797 23.74 71.7397 24.93 72.4597 25.83C73.1997 26.71 74.1697 27.15 75.3697 27.15H78.7897C79.9497 27.15 80.8997 26.74 81.6397 25.92C82.3797 25.1 82.7497 24.05 82.7497 22.77V21.75H76.9297V18.69H86.1997V22.77C86.1997 24.23 85.8897 25.53 85.2697 26.67C84.6497 27.79 83.7797 28.67 82.6597 29.31C81.5397 29.93 80.2497 30.24 78.7897 30.24H75.3697Z" fill="white"/>
<path d="M92.1435 30C91.3435 30 90.7135 29.77 90.2535 29.31C89.7935 28.85 89.5635 28.24 89.5635 27.48V9H93.0735V26.94H104.473V30H92.1435ZM107.237 9H110.747V30H107.237V9ZM115.14 9H118.29L128.91 24.36V9H132.33V30H129.15L118.56 14.7V30H115.14V9ZM149.459 30L142.139 20.76L139.919 23.13V30H136.409V9H139.919V18.69L148.859 9H153.179L144.509 18.24L153.719 30H149.459Z" fill="url(#paint0_linear_1_73)"/>
<path d="M33.252 4.33066C36.0172 5.3123 38.2966 7.75297 39.7205 12.2665C40.1097 13.5 40.9224 18.0329 41.163 20.5329C41.3109 22.6671 41.364 24.8068 41.3222 26.9456C41.2726 29.8616 40.5906 33.0876 37.9577 34.3462C37.0596 34.778 36.0755 35.0012 35.0789 34.9992C33.7645 34.9992 32.7209 34.6252 31.9149 34.0961C30.0281 32.8582 28.6435 30.7916 26.6388 29.75C25.4319 29.1259 24.0928 28.7994 22.7329 28.7994H18.6018C17.2422 28.799 15.9026 29.1258 14.6959 29.7521C12.6913 30.7895 11.3087 32.8582 9.41774 34.0961C8.4763 34.7033 7.37592 35.0176 6.25581 34.9992C5.25927 35.0012 4.27516 34.778 3.37702 34.3462C0.744149 33.0876 0.0621665 29.8637 0.0125677 26.9456C-0.23336 12.4628 3.15382 6.07902 8.07857 4.33066C8.86595 4.05167 9.70913 4 10.5461 4H11.8109C13.6246 3.9997 15.3936 4.5622 16.8741 5.60989L17.9115 6.34354C18.7173 6.91288 19.6797 7.21857 20.6663 7.21857C21.653 7.21857 22.6153 6.91288 23.4211 6.34354L24.4586 5.61196C25.9388 4.56353 27.7079 4.00031 29.5218 4H30.7865C31.6235 4 32.4667 4.05167 33.252 4.33066Z" fill="white"/>
<path d="M33.252 4.33066C36.0171 5.3123 38.2966 7.75297 39.7205 12.2665C40.1097 13.5 40.9224 18.0329 41.163 20.5329C41.3109 22.6671 41.364 24.8068 41.3221 26.9456C41.2726 29.8616 40.5906 33.0876 37.9577 34.3462C37.0596 34.778 36.0754 35.0012 35.0789 34.9992C33.7645 34.9992 32.7209 34.6252 31.9149 34.0961C30.0281 32.8582 28.6435 30.7916 26.6388 29.75C25.4319 29.1259 24.0928 28.7994 22.7329 28.7994H20.6663V7.21857C21.6529 7.21857 22.6153 6.91288 23.4211 6.34354L24.4586 5.61196C25.9388 4.56353 27.7079 4.00031 29.5218 4H30.7865C31.6235 4 32.4667 4.05167 33.252 4.33066Z" fill="url(#paint1_linear_1_73)"/>
<path d="M10.5 12V21" stroke="black" stroke-width="2"/>
<path d="M15 16.5H6" stroke="black" stroke-width="2"/>
<path fill-rule="evenodd" clip-rule="evenodd" d="M30.082 24.596L17 20L21.596 33.081L24.248 29.369L30.082 35.202L32.203 33.082L26.369 27.247L30.082 24.596Z" fill="url(#paint2_linear_1_73)"/>
<path fill-rule="evenodd" clip-rule="evenodd" d="M30.082 24.596L17 20L21.596 33.081L24.248 29.369L30.082 35.202L32.203 33.081L26.369 27.247L30.082 24.596Z" fill="url(#paint3_linear_1_73)" stroke="black" stroke-width="0.4"/>
<circle cx="30.5" cy="19.5" r="1.5" fill="black"/>
<circle cx="33.5" cy="16.5" r="1.5" fill="black"/>
<circle cx="27.5" cy="16.5" r="1.5" fill="black"/>
<circle cx="30.5" cy="13.5" r="1.5" fill="black"/>
<defs>
<linearGradient id="paint0_linear_1_73" x1="99.836" y1="0" x2="99.836" y2="38" gradientUnits="userSpaceOnUse">
<stop offset="0.360577" stop-color="#4385FF"/>
<stop offset="1" stop-color="#03338C"/>
</linearGradient>
<linearGradient id="paint1_linear_1_73" x1="31.0011" y1="4" x2="31.0011" y2="34.9993" gradientUnits="userSpaceOnUse">
<stop stop-color="#4385FF"/>
<stop offset="1" stop-color="#03338C"/>
</linearGradient>
<linearGradient id="paint2_linear_1_73" x1="24.6015" y1="20" x2="24.6015" y2="35.202" gradientUnits="userSpaceOnUse">
<stop stop-color="#4385FF"/>
<stop offset="1" stop-color="#999999"/>
</linearGradient>
<linearGradient id="paint3_linear_1_73" x1="24.6015" y1="20" x2="24.6015" y2="35.202" gradientUnits="userSpaceOnUse">
<stop stop-color="#4385FF"/>
<stop offset="1" stop-color="#03338C"/>
</linearGradient>
</defs>
</svg>
